<svg width="48" height="48" viewBox="0 0 48 48" fill="none" xmlns="http://www.w3.org/2000/svg">
<path fill-rule="evenodd" clip-rule="evenodd" d="M30.2728 39.5872C29.6193 38.6309 29.6856 38.4424 28.5579 38.3134C26.0467 38.1867 25.7169 37.87 25.7169 36.0192C25.7169 34.3569 26.4554 31.2378 26.5209 30.0312C26.5848 28.4956 26.3899 27.9271 26.3899 26.8465C26.3899 25.7596 27.1214 24.5484 27.2516 21.9963C27.3834 19.4495 26.7697 17.6119 26.7697 17.6119C27.3031 17.5377 27.9629 17.1631 28.1633 16.7143C28.4237 16.0763 29.2863 12.6312 29.2863 11.2315C29.2863 10.6545 29.2184 10.1539 29.089 9.7677C28.4947 8.35568 26.726 8.6044 25.936 7.69524C25.6857 7.41793 25.525 7.43106 25.5125 6.4207C25.9212 5.8545 26.0467 5.01408 26.0467 3.79671C26.0467 2.78326 25.2505 2 24.1891 2C23.1293 2 22.3315 2.78326 22.3315 3.79671C22.3315 5.01408 22.4579 5.8545 22.8735 6.4207C22.854 7.43106 22.6949 7.41793 22.4508 7.69524C21.6593 8.6044 19.8937 8.35568 19.2862 9.7677C19.1544 10.1539 19.0967 10.6545 19.0967 11.2315C19.0967 12.6312 19.9561 16.0763 20.2166 16.7143C20.4209 17.1631 21.0736 17.5377 21.6094 17.6119C21.6094 17.6119 20.9941 19.4495 21.1313 21.9963C21.2623 24.5484 21.9892 25.7596 21.9892 26.8465C21.9892 27.9271 21.7903 28.4956 21.8558 30.0312C21.9221 31.2378 22.67 34.3569 22.67 36.0192C22.67 37.87 22.3315 38.1867 19.818 38.3134C18.6943 38.4424 18.7598 38.6309 18.1047 39.5872H14.7544L12 46H36.3822L33.6285 39.5872H30.2728Z" fill="#AAAAAA" stroke="#AAAAAA"/>
</svg>
